<?xml version="1.0" encoding="UTF-8"?>
<svg xmlns="http://www.w3.org/2000/svg" xmlns:xlink="http://www.w3.org/1999/xlink" width="45px" height="36px" viewBox="0 0 45 36" version="1.1">
<g id="surface1">
<path style=" stroke:none;fill-rule:nonzero;fill:rgb(100%,100%,100%);fill-opacity:1;" d="M 27.617188 0.0859375 C 26.421875 -0.261719 25.179688 0.4375 24.835938 1.632812 L 15.835938 33.132812 C 15.488281 34.328125 16.1875 35.570312 17.382812 35.914062 C 18.578125 36.261719 19.820312 35.5625 20.164062 34.367188 L 29.164062 2.867188 C 29.511719 1.671875 28.8125 0.429688 27.617188 0.0859375 Z M 33.285156 8.527344 C 32.40625 9.40625 32.40625 10.835938 33.285156 11.714844 L 39.566406 18 L 33.277344 24.285156 C 32.398438 25.164062 32.398438 26.59375 33.277344 27.472656 C 34.15625 28.351562 35.585938 28.351562 36.464844 27.472656 L 44.339844 19.597656 C 45.21875 18.71875 45.21875 17.289062 44.339844 16.410156 L 36.464844 8.535156 C 35.585938 7.65625 34.15625 7.65625 33.277344 8.535156 Z M 11.722656 8.527344 C 10.84375 7.648438 9.414062 7.648438 8.535156 8.527344 L 0.660156 16.402344 C -0.21875 17.28125 -0.21875 18.710938 0.660156 19.589844 L 8.535156 27.464844 C 9.414062 28.34375 10.84375 28.34375 11.722656 27.464844 C 12.601562 26.585938 12.601562 25.15625 11.722656 24.277344 L 5.433594 18 L 11.722656 11.714844 C 12.601562 10.835938 12.601562 9.40625 11.722656 8.527344 Z M 11.722656 8.527344 "/>
</g>
</svg>
