<?xml version="1.0" encoding="UTF-8"?>
<svg xmlns="http://www.w3.org/2000/svg" xmlns:xlink="http://www.w3.org/1999/xlink" width="36px" height="36px" viewBox="0 0 36 36" version="1.1">
<g id="surface1">
<path style=" stroke:none;fill-rule:nonzero;fill:rgb(100%,100%,100%);fill-opacity:1;" d="M 0 6.75 C 0 4.269531 2.019531 2.25 4.5 2.25 L 31.5 2.25 C 33.980469 2.25 36 4.269531 36 6.75 L 36 29.25 C 36 31.730469 33.980469 33.75 31.5 33.75 L 4.5 33.75 C 2.019531 33.75 0 31.730469 0 29.25 Z M 22.765625 14.238281 C 22.449219 13.773438 21.929688 13.5 21.375 13.5 C 20.820312 13.5 20.292969 13.773438 19.984375 14.238281 L 13.867188 23.210938 L 12.003906 20.882812 C 11.679688 20.480469 11.195312 20.25 10.6875 20.25 C 10.179688 20.25 9.6875 20.480469 9.371094 20.882812 L 4.871094 26.507812 C 4.464844 27.015625 4.386719 27.710938 4.667969 28.292969 C 4.949219 28.878906 5.539062 29.25 6.1875 29.25 L 29.8125 29.25 C 30.4375 29.25 31.015625 28.90625 31.304688 28.351562 C 31.589844 27.792969 31.554688 27.125 31.203125 26.613281 Z M 7.875 13.5 C 9.738281 13.5 11.25 11.988281 11.25 10.125 C 11.25 8.261719 9.738281 6.75 7.875 6.75 C 6.011719 6.75 4.5 8.261719 4.5 10.125 C 4.5 11.988281 6.011719 13.5 7.875 13.5 Z M 7.875 13.5 "/>
</g>
</svg>
