<?xml version="1.0" encoding="UTF-8"?>
<svg xmlns="http://www.w3.org/2000/svg" xmlns:xlink="http://www.w3.org/1999/xlink" width="45px" height="36px" viewBox="0 0 45 36" version="1.1">
<g id="surface1">
<path style=" stroke:none;fill-rule:nonzero;fill:rgb(100%,100%,100%);fill-opacity:1;" d="M 27 6.75 L 27 22.5 L 4.5 22.5 L 4.5 6.75 Z M 4.5 2.25 C 2.019531 2.25 0 4.269531 0 6.75 L 0 22.5 C 0 24.980469 2.019531 27 4.5 27 L 12.746094 27 L 11.996094 29.25 L 6.75 29.25 C 5.503906 29.25 4.5 30.253906 4.5 31.5 C 4.5 32.746094 5.503906 33.75 6.75 33.75 L 24.75 33.75 C 25.996094 33.75 27 32.746094 27 31.5 C 27 30.253906 25.996094 29.25 24.75 29.25 L 19.496094 29.25 L 18.746094 27 L 27 27 C 29.480469 27 31.5 24.980469 31.5 22.5 L 31.5 6.75 C 31.5 4.269531 29.480469 2.25 27 2.25 Z M 37.125 2.25 C 35.261719 2.25 33.75 3.761719 33.75 5.625 L 33.75 30.375 C 33.75 32.238281 35.261719 33.75 37.125 33.75 L 41.625 33.75 C 43.488281 33.75 45 32.238281 45 30.375 L 45 5.625 C 45 3.761719 43.488281 2.25 41.625 2.25 Z M 38.25 6.75 L 40.5 6.75 C 41.117188 6.75 41.625 7.257812 41.625 7.875 C 41.625 8.492188 41.117188 9 40.5 9 L 38.25 9 C 37.632812 9 37.125 8.492188 37.125 7.875 C 37.125 7.257812 37.632812 6.75 38.25 6.75 Z M 37.125 12.375 C 37.125 11.757812 37.632812 11.25 38.25 11.25 L 40.5 11.25 C 41.117188 11.25 41.625 11.757812 41.625 12.375 C 41.625 12.992188 41.117188 13.5 40.5 13.5 L 38.25 13.5 C 37.632812 13.5 37.125 12.992188 37.125 12.375 Z M 39.375 23.625 C 40.617188 23.625 41.625 24.632812 41.625 25.875 C 41.625 27.117188 40.617188 28.125 39.375 28.125 C 38.132812 28.125 37.125 27.117188 37.125 25.875 C 37.125 24.632812 38.132812 23.625 39.375 23.625 Z M 39.375 23.625 "/>
</g>
</svg>
